<mxfile host="app.diagrams.net" modified="2024-05-26T21:29:02.910Z" agent="Mozilla/5.0 (Windows NT 10.0; Win64; x64) AppleWebKit/537.36 (KHTML, like Gecko) Chrome/125.0.0.0 Safari/537.36" etag="TlL93ooYfXcrj_errMi8" version="24.4.8" type="google">
  <diagram id="C5RBs43oDa-KdzZeNtuy" name="Page-1">
    <mxGraphModel dx="1674" dy="1949" grid="1" gridSize="10" guides="1" tooltips="1" connect="1" arrows="1" fold="1" page="1" pageScale="1" pageWidth="827" pageHeight="1169" math="0" shadow="0">
      <root>
        <mxCell id="WIyWlLk6GJQsqaUBKTNV-0" />
        <mxCell id="WIyWlLk6GJQsqaUBKTNV-1" parent="WIyWlLk6GJQsqaUBKTNV-0" />
        <mxCell id="tUmBblhTTpLGE1RhBI9s-130" value="Telefone" style="ellipse;shape=doubleEllipse;margin=3;whiteSpace=wrap;html=1;align=center;" parent="WIyWlLk6GJQsqaUBKTNV-1" vertex="1">
          <mxGeometry x="880" y="210" width="100" height="40" as="geometry" />
        </mxCell>
        <mxCell id="tUmBblhTTpLGE1RhBI9s-93" value="" style="rounded=1;arcSize=10;whiteSpace=wrap;html=1;align=center;" parent="WIyWlLk6GJQsqaUBKTNV-1" vertex="1">
          <mxGeometry x="425" y="460" width="160" height="100" as="geometry" />
        </mxCell>
        <mxCell id="tUmBblhTTpLGE1RhBI9s-0" value="Candidato" style="rounded=1;whiteSpace=wrap;html=1;fontSize=12;glass=0;strokeWidth=1;shadow=0;arcSize=20;" parent="WIyWlLk6GJQsqaUBKTNV-1" vertex="1">
          <mxGeometry x="320" y="320" width="120" height="40" as="geometry" />
        </mxCell>
        <mxCell id="tUmBblhTTpLGE1RhBI9s-2" value="Partido" style="rounded=1;whiteSpace=wrap;html=1;fontSize=12;glass=0;strokeWidth=1;shadow=0;" parent="WIyWlLk6GJQsqaUBKTNV-1" vertex="1">
          <mxGeometry x="445" y="20" width="120" height="40" as="geometry" />
        </mxCell>
        <mxCell id="tUmBblhTTpLGE1RhBI9s-5" value="Processo judicial" style="rounded=1;whiteSpace=wrap;html=1;fontSize=12;glass=0;strokeWidth=1;shadow=0;" parent="WIyWlLk6GJQsqaUBKTNV-1" vertex="1">
          <mxGeometry x="180" y="-80" width="120" height="40" as="geometry" />
        </mxCell>
        <mxCell id="tUmBblhTTpLGE1RhBI9s-6" value="Cargo" style="rounded=1;whiteSpace=wrap;html=1;fontSize=12;glass=0;strokeWidth=1;shadow=0;" parent="WIyWlLk6GJQsqaUBKTNV-1" vertex="1">
          <mxGeometry x="445" y="660" width="120" height="40" as="geometry" />
        </mxCell>
        <mxCell id="tUmBblhTTpLGE1RhBI9s-7" value="Equipe de apoio" style="rounded=1;whiteSpace=wrap;html=1;fontSize=12;glass=0;strokeWidth=1;shadow=0;" parent="WIyWlLk6GJQsqaUBKTNV-1" vertex="1">
          <mxGeometry x="40" y="660" width="120" height="40" as="geometry" />
        </mxCell>
        <mxCell id="tUmBblhTTpLGE1RhBI9s-8" value="Participante equipe de apoio" style="rounded=1;whiteSpace=wrap;html=1;fontSize=12;glass=0;strokeWidth=1;shadow=0;" parent="WIyWlLk6GJQsqaUBKTNV-1" vertex="1">
          <mxGeometry x="40" y="320" width="120" height="40" as="geometry" />
        </mxCell>
        <mxCell id="tUmBblhTTpLGE1RhBI9s-10" value="Programa de partido" style="rounded=1;whiteSpace=wrap;html=1;fontSize=12;glass=0;strokeWidth=1;shadow=0;" parent="WIyWlLk6GJQsqaUBKTNV-1" vertex="1">
          <mxGeometry x="827" y="20" width="120" height="40" as="geometry" />
        </mxCell>
        <mxCell id="tUmBblhTTpLGE1RhBI9s-11" value="Pleito" style="rounded=1;whiteSpace=wrap;html=1;fontSize=12;glass=0;strokeWidth=1;shadow=0;" parent="WIyWlLk6GJQsqaUBKTNV-1" vertex="1">
          <mxGeometry x="870" y="490" width="120" height="40" as="geometry" />
        </mxCell>
        <mxCell id="tUmBblhTTpLGE1RhBI9s-27" value="IndivÃ­duo" style="rounded=1;whiteSpace=wrap;html=1;fontSize=12;glass=0;strokeWidth=1;shadow=0;" parent="WIyWlLk6GJQsqaUBKTNV-1" vertex="1">
          <mxGeometry x="180" y="120" width="120" height="40" as="geometry" />
        </mxCell>
        <mxCell id="tUmBblhTTpLGE1RhBI9s-28" value="" style="ellipse;whiteSpace=wrap;html=1;aspect=fixed;" parent="WIyWlLk6GJQsqaUBKTNV-1" vertex="1">
          <mxGeometry x="225" y="220" width="30" height="30" as="geometry" />
        </mxCell>
        <mxCell id="tUmBblhTTpLGE1RhBI9s-29" value="" style="endArrow=none;html=1;rounded=0;fontSize=12;startSize=8;endSize=8;curved=1;entryX=0.5;entryY=1;entryDx=0;entryDy=0;exitX=0.5;exitY=0;exitDx=0;exitDy=0;" parent="WIyWlLk6GJQsqaUBKTNV-1" source="tUmBblhTTpLGE1RhBI9s-28" target="tUmBblhTTpLGE1RhBI9s-27" edge="1">
          <mxGeometry width="50" height="50" relative="1" as="geometry">
            <mxPoint x="540" y="220" as="sourcePoint" />
            <mxPoint x="590" y="170" as="targetPoint" />
          </mxGeometry>
        </mxCell>
        <mxCell id="tUmBblhTTpLGE1RhBI9s-31" value="Doador" style="rounded=1;whiteSpace=wrap;html=1;fontSize=12;glass=0;strokeWidth=1;shadow=0;" parent="WIyWlLk6GJQsqaUBKTNV-1" vertex="1">
          <mxGeometry x="180" y="320" width="120" height="40" as="geometry" />
        </mxCell>
        <mxCell id="tUmBblhTTpLGE1RhBI9s-33" value="" style="endArrow=none;html=1;rounded=0;fontSize=12;startSize=8;endSize=8;curved=1;entryX=0.5;entryY=1;entryDx=0;entryDy=0;exitX=0.5;exitY=0;exitDx=0;exitDy=0;" parent="WIyWlLk6GJQsqaUBKTNV-1" source="tUmBblhTTpLGE1RhBI9s-31" target="tUmBblhTTpLGE1RhBI9s-28" edge="1">
          <mxGeometry width="50" height="50" relative="1" as="geometry">
            <mxPoint x="540" y="220" as="sourcePoint" />
            <mxPoint x="590" y="170" as="targetPoint" />
          </mxGeometry>
        </mxCell>
        <mxCell id="tUmBblhTTpLGE1RhBI9s-34" value="" style="endArrow=none;html=1;rounded=0;fontSize=12;startSize=8;endSize=8;curved=1;entryX=1;entryY=1;entryDx=0;entryDy=0;exitX=0.5;exitY=0;exitDx=0;exitDy=0;" parent="WIyWlLk6GJQsqaUBKTNV-1" source="tUmBblhTTpLGE1RhBI9s-0" target="tUmBblhTTpLGE1RhBI9s-28" edge="1">
          <mxGeometry width="50" height="50" relative="1" as="geometry">
            <mxPoint x="480" y="280" as="sourcePoint" />
            <mxPoint x="590" y="170" as="targetPoint" />
          </mxGeometry>
        </mxCell>
        <mxCell id="tUmBblhTTpLGE1RhBI9s-35" value="" style="endArrow=none;html=1;rounded=0;fontSize=12;startSize=8;endSize=8;curved=1;entryX=0;entryY=1;entryDx=0;entryDy=0;exitX=0.5;exitY=0;exitDx=0;exitDy=0;" parent="WIyWlLk6GJQsqaUBKTNV-1" source="tUmBblhTTpLGE1RhBI9s-8" target="tUmBblhTTpLGE1RhBI9s-28" edge="1">
          <mxGeometry width="50" height="50" relative="1" as="geometry">
            <mxPoint x="540" y="220" as="sourcePoint" />
            <mxPoint x="590" y="170" as="targetPoint" />
          </mxGeometry>
        </mxCell>
        <mxCell id="tUmBblhTTpLGE1RhBI9s-37" value="" style="shape=requiredInterface;html=1;verticalLabelPosition=bottom;sketch=0;rotation=30;" parent="WIyWlLk6GJQsqaUBKTNV-1" vertex="1">
          <mxGeometry x="291.99" y="261.66" width="20" height="29.09" as="geometry" />
        </mxCell>
        <mxCell id="tUmBblhTTpLGE1RhBI9s-39" value="" style="shape=requiredInterface;html=1;verticalLabelPosition=bottom;sketch=0;rotation=90;" parent="WIyWlLk6GJQsqaUBKTNV-1" vertex="1">
          <mxGeometry x="230.1" y="269.5" width="21.2" height="32.21" as="geometry" />
        </mxCell>
        <mxCell id="tUmBblhTTpLGE1RhBI9s-41" value="" style="shape=requiredInterface;html=1;verticalLabelPosition=bottom;sketch=0;rotation=-210;" parent="WIyWlLk6GJQsqaUBKTNV-1" vertex="1">
          <mxGeometry x="158.19" y="262.31" width="25.36" height="33.14" as="geometry" />
        </mxCell>
        <mxCell id="tUmBblhTTpLGE1RhBI9s-42" value="D" style="text;strokeColor=none;fillColor=none;html=1;align=center;verticalAlign=middle;whiteSpace=wrap;rounded=0;fontSize=16;" parent="WIyWlLk6GJQsqaUBKTNV-1" vertex="1">
          <mxGeometry x="210" y="220" width="60" height="30" as="geometry" />
        </mxCell>
        <mxCell id="tUmBblhTTpLGE1RhBI9s-55" value="Tem" style="shape=rhombus;perimeter=rhombusPerimeter;whiteSpace=wrap;html=1;align=center;" parent="WIyWlLk6GJQsqaUBKTNV-1" vertex="1">
          <mxGeometry x="180" y="10" width="120" height="60" as="geometry" />
        </mxCell>
        <mxCell id="tUmBblhTTpLGE1RhBI9s-56" value="" style="endArrow=none;html=1;rounded=0;fontSize=12;startSize=8;endSize=8;curved=1;entryX=0.5;entryY=0;entryDx=0;entryDy=0;exitX=0.5;exitY=1;exitDx=0;exitDy=0;" parent="WIyWlLk6GJQsqaUBKTNV-1" source="tUmBblhTTpLGE1RhBI9s-55" target="tUmBblhTTpLGE1RhBI9s-27" edge="1">
          <mxGeometry relative="1" as="geometry">
            <mxPoint x="490" y="190" as="sourcePoint" />
            <mxPoint x="650" y="190" as="targetPoint" />
          </mxGeometry>
        </mxCell>
        <mxCell id="tUmBblhTTpLGE1RhBI9s-57" value="1" style="resizable=0;html=1;whiteSpace=wrap;align=right;verticalAlign=bottom;" parent="tUmBblhTTpLGE1RhBI9s-56" connectable="0" vertex="1">
          <mxGeometry x="1" relative="1" as="geometry" />
        </mxCell>
        <mxCell id="tUmBblhTTpLGE1RhBI9s-58" value="" style="endArrow=none;html=1;rounded=0;fontSize=12;startSize=8;endSize=8;curved=1;entryX=0.5;entryY=1;entryDx=0;entryDy=0;exitX=0.5;exitY=0;exitDx=0;exitDy=0;" parent="WIyWlLk6GJQsqaUBKTNV-1" source="tUmBblhTTpLGE1RhBI9s-55" target="tUmBblhTTpLGE1RhBI9s-5" edge="1">
          <mxGeometry relative="1" as="geometry">
            <mxPoint x="490" y="190" as="sourcePoint" />
            <mxPoint x="650" y="190" as="targetPoint" />
          </mxGeometry>
        </mxCell>
        <mxCell id="tUmBblhTTpLGE1RhBI9s-59" value="N" style="resizable=0;html=1;whiteSpace=wrap;align=right;verticalAlign=bottom;" parent="tUmBblhTTpLGE1RhBI9s-58" connectable="0" vertex="1">
          <mxGeometry x="1" relative="1" as="geometry">
            <mxPoint y="20" as="offset" />
          </mxGeometry>
        </mxCell>
        <mxCell id="tUmBblhTTpLGE1RhBI9s-60" value="" style="endArrow=none;html=1;rounded=0;fontSize=12;startSize=8;endSize=8;curved=1;exitX=0.5;exitY=0;exitDx=0;exitDy=0;entryX=0.5;entryY=1;entryDx=0;entryDy=0;" parent="WIyWlLk6GJQsqaUBKTNV-1" source="tUmBblhTTpLGE1RhBI9s-68" target="tUmBblhTTpLGE1RhBI9s-2" edge="1">
          <mxGeometry relative="1" as="geometry">
            <mxPoint x="505" y="160" as="sourcePoint" />
            <mxPoint x="650" y="190" as="targetPoint" />
          </mxGeometry>
        </mxCell>
        <mxCell id="tUmBblhTTpLGE1RhBI9s-61" value="1" style="resizable=0;html=1;whiteSpace=wrap;align=right;verticalAlign=bottom;" parent="tUmBblhTTpLGE1RhBI9s-60" connectable="0" vertex="1">
          <mxGeometry x="1" relative="1" as="geometry">
            <mxPoint x="-5" y="20" as="offset" />
          </mxGeometry>
        </mxCell>
        <mxCell id="tUmBblhTTpLGE1RhBI9s-65" value="" style="shape=link;html=1;rounded=0;fontSize=12;startSize=8;endSize=8;curved=1;entryX=1;entryY=0.5;entryDx=0;entryDy=0;exitX=0.5;exitY=1;exitDx=0;exitDy=0;" parent="WIyWlLk6GJQsqaUBKTNV-1" source="tUmBblhTTpLGE1RhBI9s-68" target="tUmBblhTTpLGE1RhBI9s-0" edge="1">
          <mxGeometry relative="1" as="geometry">
            <mxPoint x="505" y="240" as="sourcePoint" />
            <mxPoint x="650" y="190" as="targetPoint" />
          </mxGeometry>
        </mxCell>
        <mxCell id="tUmBblhTTpLGE1RhBI9s-66" value="N" style="resizable=0;html=1;whiteSpace=wrap;align=right;verticalAlign=bottom;" parent="tUmBblhTTpLGE1RhBI9s-65" connectable="0" vertex="1">
          <mxGeometry x="1" relative="1" as="geometry">
            <mxPoint x="10" y="-20" as="offset" />
          </mxGeometry>
        </mxCell>
        <mxCell id="tUmBblhTTpLGE1RhBI9s-68" value="Participa" style="shape=rhombus;perimeter=rhombusPerimeter;whiteSpace=wrap;html=1;align=center;" parent="WIyWlLk6GJQsqaUBKTNV-1" vertex="1">
          <mxGeometry x="445" y="170" width="120" height="60" as="geometry" />
        </mxCell>
        <mxCell id="tUmBblhTTpLGE1RhBI9s-69" value="Tem" style="shape=rhombus;perimeter=rhombusPerimeter;whiteSpace=wrap;html=1;align=center;" parent="WIyWlLk6GJQsqaUBKTNV-1" vertex="1">
          <mxGeometry x="630" y="10" width="120" height="60" as="geometry" />
        </mxCell>
        <mxCell id="tUmBblhTTpLGE1RhBI9s-70" value="" style="endArrow=none;html=1;rounded=0;fontSize=12;startSize=8;endSize=8;curved=1;exitX=1;exitY=0.5;exitDx=0;exitDy=0;entryX=0;entryY=0.5;entryDx=0;entryDy=0;" parent="WIyWlLk6GJQsqaUBKTNV-1" source="tUmBblhTTpLGE1RhBI9s-69" target="tUmBblhTTpLGE1RhBI9s-10" edge="1">
          <mxGeometry relative="1" as="geometry">
            <mxPoint x="490" y="190" as="sourcePoint" />
            <mxPoint x="650" y="190" as="targetPoint" />
          </mxGeometry>
        </mxCell>
        <mxCell id="tUmBblhTTpLGE1RhBI9s-71" value="1" style="resizable=0;html=1;whiteSpace=wrap;align=right;verticalAlign=bottom;" parent="tUmBblhTTpLGE1RhBI9s-70" connectable="0" vertex="1">
          <mxGeometry x="1" relative="1" as="geometry">
            <mxPoint x="-7" as="offset" />
          </mxGeometry>
        </mxCell>
        <mxCell id="tUmBblhTTpLGE1RhBI9s-74" value="" style="shape=link;html=1;rounded=0;fontSize=12;startSize=8;endSize=8;curved=1;exitX=0;exitY=0.5;exitDx=0;exitDy=0;entryX=1;entryY=0.5;entryDx=0;entryDy=0;" parent="WIyWlLk6GJQsqaUBKTNV-1" source="tUmBblhTTpLGE1RhBI9s-69" target="tUmBblhTTpLGE1RhBI9s-2" edge="1">
          <mxGeometry relative="1" as="geometry">
            <mxPoint x="490" y="190" as="sourcePoint" />
            <mxPoint x="650" y="190" as="targetPoint" />
          </mxGeometry>
        </mxCell>
        <mxCell id="tUmBblhTTpLGE1RhBI9s-75" value="1" style="resizable=0;html=1;whiteSpace=wrap;align=right;verticalAlign=bottom;" parent="tUmBblhTTpLGE1RhBI9s-74" connectable="0" vertex="1">
          <mxGeometry x="1" relative="1" as="geometry">
            <mxPoint x="15" as="offset" />
          </mxGeometry>
        </mxCell>
        <mxCell id="tUmBblhTTpLGE1RhBI9s-80" value="" style="endArrow=none;html=1;rounded=0;fontSize=12;startSize=8;endSize=8;curved=1;exitX=0.5;exitY=0;exitDx=0;exitDy=0;entryX=0.5;entryY=1;entryDx=0;entryDy=0;" parent="WIyWlLk6GJQsqaUBKTNV-1" target="tUmBblhTTpLGE1RhBI9s-0" edge="1">
          <mxGeometry relative="1" as="geometry">
            <mxPoint x="505" y="480" as="sourcePoint" />
            <mxPoint x="650" y="390" as="targetPoint" />
          </mxGeometry>
        </mxCell>
        <mxCell id="tUmBblhTTpLGE1RhBI9s-81" value="N" style="resizable=0;html=1;whiteSpace=wrap;align=right;verticalAlign=bottom;" parent="tUmBblhTTpLGE1RhBI9s-80" connectable="0" vertex="1">
          <mxGeometry x="1" relative="1" as="geometry">
            <mxPoint x="34" y="20" as="offset" />
          </mxGeometry>
        </mxCell>
        <mxCell id="tUmBblhTTpLGE1RhBI9s-82" value="" style="endArrow=none;html=1;rounded=0;fontSize=12;startSize=8;endSize=8;curved=1;exitX=0.5;exitY=1;exitDx=0;exitDy=0;entryX=0.5;entryY=0;entryDx=0;entryDy=0;" parent="WIyWlLk6GJQsqaUBKTNV-1" target="tUmBblhTTpLGE1RhBI9s-6" edge="1">
          <mxGeometry relative="1" as="geometry">
            <mxPoint x="505" y="540" as="sourcePoint" />
            <mxPoint x="390" y="370" as="targetPoint" />
          </mxGeometry>
        </mxCell>
        <mxCell id="tUmBblhTTpLGE1RhBI9s-83" value="N" style="resizable=0;html=1;whiteSpace=wrap;align=right;verticalAlign=bottom;" parent="tUmBblhTTpLGE1RhBI9s-82" connectable="0" vertex="1">
          <mxGeometry x="1" relative="1" as="geometry">
            <mxPoint x="15" as="offset" />
          </mxGeometry>
        </mxCell>
        <mxCell id="tUmBblhTTpLGE1RhBI9s-86" value="Doa" style="shape=rhombus;perimeter=rhombusPerimeter;whiteSpace=wrap;html=1;align=center;" parent="WIyWlLk6GJQsqaUBKTNV-1" vertex="1">
          <mxGeometry x="180" y="480" width="120" height="60" as="geometry" />
        </mxCell>
        <mxCell id="tUmBblhTTpLGE1RhBI9s-87" value="" style="endArrow=none;html=1;rounded=0;fontSize=12;startSize=8;endSize=8;curved=1;exitX=0.5;exitY=0;exitDx=0;exitDy=0;entryX=0.5;entryY=1;entryDx=0;entryDy=0;" parent="WIyWlLk6GJQsqaUBKTNV-1" source="tUmBblhTTpLGE1RhBI9s-86" target="tUmBblhTTpLGE1RhBI9s-31" edge="1">
          <mxGeometry relative="1" as="geometry">
            <mxPoint x="515" y="490" as="sourcePoint" />
            <mxPoint x="390" y="370" as="targetPoint" />
          </mxGeometry>
        </mxCell>
        <mxCell id="tUmBblhTTpLGE1RhBI9s-88" value="N" style="resizable=0;html=1;whiteSpace=wrap;align=right;verticalAlign=bottom;" parent="tUmBblhTTpLGE1RhBI9s-87" connectable="0" vertex="1">
          <mxGeometry x="1" relative="1" as="geometry">
            <mxPoint x="15" y="20" as="offset" />
          </mxGeometry>
        </mxCell>
        <mxCell id="tUmBblhTTpLGE1RhBI9s-89" value="" style="endArrow=none;html=1;rounded=0;fontSize=12;startSize=8;endSize=8;curved=1;exitX=1;exitY=0.5;exitDx=0;exitDy=0;entryX=0;entryY=0.5;entryDx=0;entryDy=0;" parent="WIyWlLk6GJQsqaUBKTNV-1" source="tUmBblhTTpLGE1RhBI9s-86" target="tUmBblhTTpLGE1RhBI9s-93" edge="1">
          <mxGeometry relative="1" as="geometry">
            <mxPoint x="240" y="470" as="sourcePoint" />
            <mxPoint x="360" y="530" as="targetPoint" />
          </mxGeometry>
        </mxCell>
        <mxCell id="tUmBblhTTpLGE1RhBI9s-90" value="N" style="resizable=0;html=1;whiteSpace=wrap;align=right;verticalAlign=bottom;" parent="tUmBblhTTpLGE1RhBI9s-89" connectable="0" vertex="1">
          <mxGeometry x="1" relative="1" as="geometry">
            <mxPoint x="-5" as="offset" />
          </mxGeometry>
        </mxCell>
        <mxCell id="tUmBblhTTpLGE1RhBI9s-92" value="Candidata" style="shape=rhombus;perimeter=rhombusPerimeter;whiteSpace=wrap;html=1;align=center;" parent="WIyWlLk6GJQsqaUBKTNV-1" vertex="1">
          <mxGeometry x="445" y="480" width="120" height="60" as="geometry" />
        </mxCell>
        <mxCell id="tUmBblhTTpLGE1RhBI9s-94" style="edgeStyle=none;curved=1;rounded=0;orthogonalLoop=1;jettySize=auto;html=1;exitX=0.5;exitY=0;exitDx=0;exitDy=0;fontSize=12;startSize=8;endSize=8;" parent="WIyWlLk6GJQsqaUBKTNV-1" source="tUmBblhTTpLGE1RhBI9s-93" target="tUmBblhTTpLGE1RhBI9s-93" edge="1">
          <mxGeometry relative="1" as="geometry" />
        </mxCell>
        <mxCell id="tUmBblhTTpLGE1RhBI9s-96" style="edgeStyle=none;curved=1;rounded=0;orthogonalLoop=1;jettySize=auto;html=1;exitX=0.5;exitY=0;exitDx=0;exitDy=0;fontSize=12;startSize=8;endSize=8;" parent="WIyWlLk6GJQsqaUBKTNV-1" source="tUmBblhTTpLGE1RhBI9s-93" target="tUmBblhTTpLGE1RhBI9s-93" edge="1">
          <mxGeometry relative="1" as="geometry" />
        </mxCell>
        <mxCell id="tUmBblhTTpLGE1RhBI9s-97" value="Participa" style="shape=rhombus;perimeter=rhombusPerimeter;whiteSpace=wrap;html=1;align=center;" parent="WIyWlLk6GJQsqaUBKTNV-1" vertex="1">
          <mxGeometry x="40" y="480" width="120" height="60" as="geometry" />
        </mxCell>
        <mxCell id="tUmBblhTTpLGE1RhBI9s-98" value="" style="endArrow=none;html=1;rounded=0;fontSize=12;startSize=8;endSize=8;curved=1;exitX=0.5;exitY=0;exitDx=0;exitDy=0;entryX=0.5;entryY=1;entryDx=0;entryDy=0;" parent="WIyWlLk6GJQsqaUBKTNV-1" source="tUmBblhTTpLGE1RhBI9s-97" target="tUmBblhTTpLGE1RhBI9s-8" edge="1">
          <mxGeometry relative="1" as="geometry">
            <mxPoint x="250" y="490" as="sourcePoint" />
            <mxPoint x="250" y="370" as="targetPoint" />
            <Array as="points" />
          </mxGeometry>
        </mxCell>
        <mxCell id="tUmBblhTTpLGE1RhBI9s-99" value="N" style="resizable=0;html=1;whiteSpace=wrap;align=right;verticalAlign=bottom;" parent="tUmBblhTTpLGE1RhBI9s-98" connectable="0" vertex="1">
          <mxGeometry x="1" relative="1" as="geometry">
            <mxPoint x="15" y="20" as="offset" />
          </mxGeometry>
        </mxCell>
        <mxCell id="tUmBblhTTpLGE1RhBI9s-100" value="" style="endArrow=none;html=1;rounded=0;fontSize=12;startSize=8;endSize=8;curved=1;exitX=0.5;exitY=1;exitDx=0;exitDy=0;entryX=0.5;entryY=0;entryDx=0;entryDy=0;" parent="WIyWlLk6GJQsqaUBKTNV-1" source="tUmBblhTTpLGE1RhBI9s-97" target="tUmBblhTTpLGE1RhBI9s-7" edge="1">
          <mxGeometry relative="1" as="geometry">
            <mxPoint x="310" y="520" as="sourcePoint" />
            <mxPoint x="435" y="520" as="targetPoint" />
          </mxGeometry>
        </mxCell>
        <mxCell id="tUmBblhTTpLGE1RhBI9s-101" value="N" style="resizable=0;html=1;whiteSpace=wrap;align=right;verticalAlign=bottom;" parent="tUmBblhTTpLGE1RhBI9s-100" connectable="0" vertex="1">
          <mxGeometry x="1" relative="1" as="geometry">
            <mxPoint x="-5" as="offset" />
          </mxGeometry>
        </mxCell>
        <mxCell id="tUmBblhTTpLGE1RhBI9s-102" value="Apoia" style="shape=rhombus;perimeter=rhombusPerimeter;whiteSpace=wrap;html=1;align=center;" parent="WIyWlLk6GJQsqaUBKTNV-1" vertex="1">
          <mxGeometry x="241.99" y="600" width="120" height="60" as="geometry" />
        </mxCell>
        <mxCell id="tUmBblhTTpLGE1RhBI9s-103" value="" style="endArrow=none;html=1;rounded=0;fontSize=12;startSize=8;endSize=8;curved=1;entryX=1;entryY=0.5;entryDx=0;entryDy=0;exitX=0;exitY=0.5;exitDx=0;exitDy=0;" parent="WIyWlLk6GJQsqaUBKTNV-1" source="tUmBblhTTpLGE1RhBI9s-102" target="tUmBblhTTpLGE1RhBI9s-7" edge="1">
          <mxGeometry relative="1" as="geometry">
            <mxPoint x="490" y="400" as="sourcePoint" />
            <mxPoint x="650" y="400" as="targetPoint" />
          </mxGeometry>
        </mxCell>
        <mxCell id="tUmBblhTTpLGE1RhBI9s-104" value="1" style="resizable=0;html=1;whiteSpace=wrap;align=right;verticalAlign=bottom;" parent="tUmBblhTTpLGE1RhBI9s-103" connectable="0" vertex="1">
          <mxGeometry x="1" relative="1" as="geometry">
            <mxPoint x="11" y="-10" as="offset" />
          </mxGeometry>
        </mxCell>
        <mxCell id="tUmBblhTTpLGE1RhBI9s-105" value="" style="endArrow=none;html=1;rounded=0;fontSize=12;startSize=8;endSize=8;curved=1;exitX=1;exitY=0.5;exitDx=0;exitDy=0;entryX=0.25;entryY=1;entryDx=0;entryDy=0;" parent="WIyWlLk6GJQsqaUBKTNV-1" source="tUmBblhTTpLGE1RhBI9s-102" target="tUmBblhTTpLGE1RhBI9s-93" edge="1">
          <mxGeometry relative="1" as="geometry">
            <mxPoint x="490" y="400" as="sourcePoint" />
            <mxPoint x="650" y="400" as="targetPoint" />
          </mxGeometry>
        </mxCell>
        <mxCell id="tUmBblhTTpLGE1RhBI9s-106" value="1" style="resizable=0;html=1;whiteSpace=wrap;align=right;verticalAlign=bottom;" parent="tUmBblhTTpLGE1RhBI9s-105" connectable="0" vertex="1">
          <mxGeometry x="1" relative="1" as="geometry">
            <mxPoint x="-35" y="20" as="offset" />
          </mxGeometry>
        </mxCell>
        <mxCell id="tUmBblhTTpLGE1RhBI9s-107" value="Empresa" style="rounded=1;whiteSpace=wrap;html=1;fontSize=12;glass=0;strokeWidth=1;shadow=0;" parent="WIyWlLk6GJQsqaUBKTNV-1" vertex="1">
          <mxGeometry x="870" y="340" width="120" height="40" as="geometry" />
        </mxCell>
        <mxCell id="tUmBblhTTpLGE1RhBI9s-108" value="Doa" style="shape=rhombus;perimeter=rhombusPerimeter;whiteSpace=wrap;html=1;align=center;" parent="WIyWlLk6GJQsqaUBKTNV-1" vertex="1">
          <mxGeometry x="670" y="330" width="120" height="60" as="geometry" />
        </mxCell>
        <mxCell id="tUmBblhTTpLGE1RhBI9s-109" value="Tem" style="shape=rhombus;perimeter=rhombusPerimeter;whiteSpace=wrap;html=1;align=center;" parent="WIyWlLk6GJQsqaUBKTNV-1" vertex="1">
          <mxGeometry x="670" y="480" width="120" height="60" as="geometry" />
        </mxCell>
        <mxCell id="tUmBblhTTpLGE1RhBI9s-110" value="" style="shape=link;html=1;rounded=0;fontSize=12;startSize=8;endSize=8;curved=1;entryX=1;entryY=0.5;entryDx=0;entryDy=0;exitX=0;exitY=0.5;exitDx=0;exitDy=0;" parent="WIyWlLk6GJQsqaUBKTNV-1" source="tUmBblhTTpLGE1RhBI9s-109" target="tUmBblhTTpLGE1RhBI9s-93" edge="1">
          <mxGeometry relative="1" as="geometry">
            <mxPoint x="490" y="400" as="sourcePoint" />
            <mxPoint x="650" y="400" as="targetPoint" />
          </mxGeometry>
        </mxCell>
        <mxCell id="tUmBblhTTpLGE1RhBI9s-111" value="1" style="resizable=0;html=1;whiteSpace=wrap;align=right;verticalAlign=bottom;" parent="tUmBblhTTpLGE1RhBI9s-110" connectable="0" vertex="1">
          <mxGeometry x="1" relative="1" as="geometry">
            <mxPoint x="15" as="offset" />
          </mxGeometry>
        </mxCell>
        <mxCell id="tUmBblhTTpLGE1RhBI9s-112" value="" style="endArrow=none;html=1;rounded=0;fontSize=12;startSize=8;endSize=8;curved=1;entryX=0;entryY=0.5;entryDx=0;entryDy=0;exitX=1;exitY=0.5;exitDx=0;exitDy=0;" parent="WIyWlLk6GJQsqaUBKTNV-1" source="tUmBblhTTpLGE1RhBI9s-109" target="tUmBblhTTpLGE1RhBI9s-11" edge="1">
          <mxGeometry relative="1" as="geometry">
            <mxPoint x="490" y="400" as="sourcePoint" />
            <mxPoint x="650" y="400" as="targetPoint" />
          </mxGeometry>
        </mxCell>
        <mxCell id="tUmBblhTTpLGE1RhBI9s-113" value="1" style="resizable=0;html=1;whiteSpace=wrap;align=right;verticalAlign=bottom;" parent="tUmBblhTTpLGE1RhBI9s-112" connectable="0" vertex="1">
          <mxGeometry x="1" relative="1" as="geometry" />
        </mxCell>
        <mxCell id="tUmBblhTTpLGE1RhBI9s-114" value="" style="endArrow=none;html=1;rounded=0;fontSize=12;startSize=8;endSize=8;curved=1;entryX=0;entryY=0.5;entryDx=0;entryDy=0;exitX=1;exitY=0.5;exitDx=0;exitDy=0;" parent="WIyWlLk6GJQsqaUBKTNV-1" source="tUmBblhTTpLGE1RhBI9s-108" target="tUmBblhTTpLGE1RhBI9s-107" edge="1">
          <mxGeometry relative="1" as="geometry">
            <mxPoint x="490" y="400" as="sourcePoint" />
            <mxPoint x="650" y="400" as="targetPoint" />
          </mxGeometry>
        </mxCell>
        <mxCell id="tUmBblhTTpLGE1RhBI9s-115" value="N" style="resizable=0;html=1;whiteSpace=wrap;align=right;verticalAlign=bottom;" parent="tUmBblhTTpLGE1RhBI9s-114" connectable="0" vertex="1">
          <mxGeometry x="1" relative="1" as="geometry" />
        </mxCell>
        <mxCell id="tUmBblhTTpLGE1RhBI9s-116" value="" style="endArrow=none;html=1;rounded=0;fontSize=12;startSize=8;endSize=8;curved=1;entryX=1;entryY=0.32;entryDx=0;entryDy=0;entryPerimeter=0;exitX=0;exitY=0.5;exitDx=0;exitDy=0;" parent="WIyWlLk6GJQsqaUBKTNV-1" source="tUmBblhTTpLGE1RhBI9s-108" target="tUmBblhTTpLGE1RhBI9s-93" edge="1">
          <mxGeometry relative="1" as="geometry">
            <mxPoint x="490" y="400" as="sourcePoint" />
            <mxPoint x="650" y="400" as="targetPoint" />
          </mxGeometry>
        </mxCell>
        <mxCell id="tUmBblhTTpLGE1RhBI9s-117" value="N" style="resizable=0;html=1;whiteSpace=wrap;align=right;verticalAlign=bottom;" parent="tUmBblhTTpLGE1RhBI9s-116" connectable="0" vertex="1">
          <mxGeometry x="1" relative="1" as="geometry">
            <mxPoint x="15" y="-22" as="offset" />
          </mxGeometry>
        </mxCell>
        <mxCell id="tUmBblhTTpLGE1RhBI9s-118" value="&lt;span style=&quot;border-bottom: 1px dotted&quot;&gt;Ano&lt;/span&gt;" style="ellipse;whiteSpace=wrap;html=1;align=center;" parent="WIyWlLk6GJQsqaUBKTNV-1" vertex="1">
          <mxGeometry x="600" y="560" width="100" height="40" as="geometry" />
        </mxCell>
        <mxCell id="tUmBblhTTpLGE1RhBI9s-119" value="Vice-candidato" style="ellipse;whiteSpace=wrap;html=1;align=center;" parent="WIyWlLk6GJQsqaUBKTNV-1" vertex="1">
          <mxGeometry x="600" y="590" width="100" height="40" as="geometry" />
        </mxCell>
        <mxCell id="tUmBblhTTpLGE1RhBI9s-122" value="Nome" style="ellipse;whiteSpace=wrap;html=1;align=center;fontStyle=4;" parent="WIyWlLk6GJQsqaUBKTNV-1" vertex="1">
          <mxGeometry x="455" y="730" width="100" height="40" as="geometry" />
        </mxCell>
        <mxCell id="tUmBblhTTpLGE1RhBI9s-123" value="Candidato" style="ellipse;whiteSpace=wrap;html=1;align=center;dashed=1;" parent="WIyWlLk6GJQsqaUBKTNV-1" vertex="1">
          <mxGeometry x="880" y="570" width="100" height="40" as="geometry" />
        </mxCell>
        <mxCell id="tUmBblhTTpLGE1RhBI9s-124" value="Cargo" style="ellipse;whiteSpace=wrap;html=1;align=center;dashed=1;" parent="WIyWlLk6GJQsqaUBKTNV-1" vertex="1">
          <mxGeometry x="880" y="600" width="100" height="40" as="geometry" />
        </mxCell>
        <mxCell id="tUmBblhTTpLGE1RhBI9s-128" style="edgeStyle=none;curved=1;rounded=0;orthogonalLoop=1;jettySize=auto;html=1;exitX=0.5;exitY=1;exitDx=0;exitDy=0;fontSize=12;startSize=8;endSize=8;" parent="WIyWlLk6GJQsqaUBKTNV-1" source="tUmBblhTTpLGE1RhBI9s-107" target="tUmBblhTTpLGE1RhBI9s-107" edge="1">
          <mxGeometry relative="1" as="geometry" />
        </mxCell>
        <mxCell id="tUmBblhTTpLGE1RhBI9s-131" value="Nome" style="ellipse;whiteSpace=wrap;html=1;align=center;" parent="WIyWlLk6GJQsqaUBKTNV-1" vertex="1">
          <mxGeometry x="880" y="240" width="100" height="40" as="geometry" />
        </mxCell>
        <mxCell id="tUmBblhTTpLGE1RhBI9s-127" value="CNPJ" style="ellipse;whiteSpace=wrap;html=1;align=center;fontStyle=4;" parent="WIyWlLk6GJQsqaUBKTNV-1" vertex="1">
          <mxGeometry x="880" y="269.5" width="100" height="40" as="geometry" />
        </mxCell>
        <mxCell id="tUmBblhTTpLGE1RhBI9s-132" value="CPF" style="ellipse;whiteSpace=wrap;html=1;align=center;fontStyle=4;" parent="WIyWlLk6GJQsqaUBKTNV-1" vertex="1">
          <mxGeometry x="325" y="120" width="100" height="40" as="geometry" />
        </mxCell>
        <mxCell id="tUmBblhTTpLGE1RhBI9s-133" value="Sigla" style="ellipse;whiteSpace=wrap;html=1;align=center;fontStyle=4;" parent="WIyWlLk6GJQsqaUBKTNV-1" vertex="1">
          <mxGeometry x="455" y="-50" width="100" height="40" as="geometry" />
        </mxCell>
        <mxCell id="tUmBblhTTpLGE1RhBI9s-135" value="Candidatura" style="text;strokeColor=none;fillColor=none;html=1;align=center;verticalAlign=middle;whiteSpace=wrap;rounded=0;fontSize=16;" parent="WIyWlLk6GJQsqaUBKTNV-1" vertex="1">
          <mxGeometry x="505" y="430" width="60" height="30" as="geometry" />
        </mxCell>
        <mxCell id="tUmBblhTTpLGE1RhBI9s-137" value="&lt;span style=&quot;border-bottom: 1px dotted&quot;&gt;Ano&lt;/span&gt;" style="ellipse;whiteSpace=wrap;html=1;align=center;" parent="WIyWlLk6GJQsqaUBKTNV-1" vertex="1">
          <mxGeometry x="50.00000000000003" y="730" width="100" height="40" as="geometry" />
        </mxCell>
        <mxCell id="tUmBblhTTpLGE1RhBI9s-126" value="Quantidade de votos" style="ellipse;whiteSpace=wrap;html=1;align=center;" parent="WIyWlLk6GJQsqaUBKTNV-1" vertex="1">
          <mxGeometry x="880" y="660" width="100" height="40" as="geometry" />
        </mxCell>
        <mxCell id="tUmBblhTTpLGE1RhBI9s-139" value="Quantidade de votos" style="ellipse;whiteSpace=wrap;html=1;align=center;" parent="WIyWlLk6GJQsqaUBKTNV-1" vertex="1">
          <mxGeometry x="600" y="620" width="100" height="40" as="geometry" />
        </mxCell>
        <mxCell id="tUmBblhTTpLGE1RhBI9s-140" value="Nome" style="ellipse;whiteSpace=wrap;html=1;align=center;" parent="WIyWlLk6GJQsqaUBKTNV-1" vertex="1">
          <mxGeometry x="325" y="150" width="100" height="40" as="geometry" />
        </mxCell>
        <mxCell id="tUmBblhTTpLGE1RhBI9s-142" value="Nome" style="ellipse;whiteSpace=wrap;html=1;align=center;" parent="WIyWlLk6GJQsqaUBKTNV-1" vertex="1">
          <mxGeometry x="455" y="-80" width="100" height="40" as="geometry" />
        </mxCell>
        <mxCell id="fYjH7rpswXSgFVdBrbpm-2" value="Ficha-limpa" style="ellipse;whiteSpace=wrap;html=1;align=center;dashed=1;" parent="WIyWlLk6GJQsqaUBKTNV-1" vertex="1">
          <mxGeometry x="325" y="180" width="100" height="40" as="geometry" />
        </mxCell>
        <mxCell id="tUmBblhTTpLGE1RhBI9s-141" value="Data de nascimento" style="ellipse;whiteSpace=wrap;html=1;align=center;" parent="WIyWlLk6GJQsqaUBKTNV-1" vertex="1">
          <mxGeometry x="325" y="210" width="100" height="40" as="geometry" />
        </mxCell>
        <mxCell id="fYjH7rpswXSgFVdBrbpm-4" value="" style="endArrow=none;html=1;rounded=0;exitX=1;exitY=0.5;exitDx=0;exitDy=0;entryX=0;entryY=0.5;entryDx=0;entryDy=0;" parent="WIyWlLk6GJQsqaUBKTNV-1" source="tUmBblhTTpLGE1RhBI9s-27" target="tUmBblhTTpLGE1RhBI9s-132" edge="1">
          <mxGeometry relative="1" as="geometry">
            <mxPoint x="490" y="170" as="sourcePoint" />
            <mxPoint x="650" y="170" as="targetPoint" />
          </mxGeometry>
        </mxCell>
        <mxCell id="fYjH7rpswXSgFVdBrbpm-5" value="" style="endArrow=none;html=1;rounded=0;entryX=0.5;entryY=0;entryDx=0;entryDy=0;exitX=0.5;exitY=1;exitDx=0;exitDy=0;" parent="WIyWlLk6GJQsqaUBKTNV-1" source="tUmBblhTTpLGE1RhBI9s-127" target="tUmBblhTTpLGE1RhBI9s-107" edge="1">
          <mxGeometry relative="1" as="geometry">
            <mxPoint x="490" y="170" as="sourcePoint" />
            <mxPoint x="650" y="170" as="targetPoint" />
          </mxGeometry>
        </mxCell>
        <mxCell id="fYjH7rpswXSgFVdBrbpm-8" value="" style="endArrow=none;html=1;rounded=0;entryX=0.5;entryY=1;entryDx=0;entryDy=0;exitX=0.5;exitY=0;exitDx=0;exitDy=0;" parent="WIyWlLk6GJQsqaUBKTNV-1" source="tUmBblhTTpLGE1RhBI9s-2" target="tUmBblhTTpLGE1RhBI9s-133" edge="1">
          <mxGeometry relative="1" as="geometry">
            <mxPoint x="897" y="30" as="sourcePoint" />
            <mxPoint x="897" as="targetPoint" />
          </mxGeometry>
        </mxCell>
        <mxCell id="fYjH7rpswXSgFVdBrbpm-9" value="" style="endArrow=none;html=1;rounded=0;entryX=0.994;entryY=0.94;entryDx=0;entryDy=0;entryPerimeter=0;exitX=0;exitY=0.5;exitDx=0;exitDy=0;" parent="WIyWlLk6GJQsqaUBKTNV-1" source="tUmBblhTTpLGE1RhBI9s-118" target="tUmBblhTTpLGE1RhBI9s-93" edge="1">
          <mxGeometry relative="1" as="geometry">
            <mxPoint x="490" y="690" as="sourcePoint" />
            <mxPoint x="650" y="690" as="targetPoint" />
          </mxGeometry>
        </mxCell>
        <mxCell id="fYjH7rpswXSgFVdBrbpm-11" value="" style="endArrow=none;html=1;rounded=0;exitX=0.5;exitY=1;exitDx=0;exitDy=0;entryX=0.5;entryY=0;entryDx=0;entryDy=0;" parent="WIyWlLk6GJQsqaUBKTNV-1" source="tUmBblhTTpLGE1RhBI9s-6" target="tUmBblhTTpLGE1RhBI9s-122" edge="1">
          <mxGeometry relative="1" as="geometry">
            <mxPoint x="490" y="690" as="sourcePoint" />
            <mxPoint x="650" y="690" as="targetPoint" />
          </mxGeometry>
        </mxCell>
        <mxCell id="fYjH7rpswXSgFVdBrbpm-12" value="" style="endArrow=none;html=1;rounded=0;entryX=0.5;entryY=1;entryDx=0;entryDy=0;exitX=0.5;exitY=0;exitDx=0;exitDy=0;" parent="WIyWlLk6GJQsqaUBKTNV-1" source="tUmBblhTTpLGE1RhBI9s-123" target="tUmBblhTTpLGE1RhBI9s-11" edge="1">
          <mxGeometry relative="1" as="geometry">
            <mxPoint x="490" y="690" as="sourcePoint" />
            <mxPoint x="650" y="690" as="targetPoint" />
          </mxGeometry>
        </mxCell>
        <mxCell id="fYjH7rpswXSgFVdBrbpm-13" value="" style="endArrow=none;html=1;rounded=0;exitX=0.5;exitY=1;exitDx=0;exitDy=0;" parent="WIyWlLk6GJQsqaUBKTNV-1" source="tUmBblhTTpLGE1RhBI9s-7" target="tUmBblhTTpLGE1RhBI9s-137" edge="1">
          <mxGeometry relative="1" as="geometry">
            <mxPoint x="490" y="690" as="sourcePoint" />
            <mxPoint x="650" y="690" as="targetPoint" />
          </mxGeometry>
        </mxCell>
        <mxCell id="fYjH7rpswXSgFVdBrbpm-15" value="Nome" style="ellipse;whiteSpace=wrap;html=1;align=center;" parent="WIyWlLk6GJQsqaUBKTNV-1" vertex="1">
          <mxGeometry x="50" y="760" width="100" height="40" as="geometry" />
        </mxCell>
        <mxCell id="fYjH7rpswXSgFVdBrbpm-16" value="ID" style="ellipse;whiteSpace=wrap;html=1;align=center;fontStyle=4;" parent="WIyWlLk6GJQsqaUBKTNV-1" vertex="1">
          <mxGeometry x="330" y="-80" width="100" height="40" as="geometry" />
        </mxCell>
        <mxCell id="fYjH7rpswXSgFVdBrbpm-17" style="edgeStyle=orthogonalEdgeStyle;rounded=0;orthogonalLoop=1;jettySize=auto;html=1;exitX=0.5;exitY=1;exitDx=0;exitDy=0;" parent="WIyWlLk6GJQsqaUBKTNV-1" source="fYjH7rpswXSgFVdBrbpm-16" target="fYjH7rpswXSgFVdBrbpm-16" edge="1">
          <mxGeometry relative="1" as="geometry" />
        </mxCell>
        <mxCell id="fYjH7rpswXSgFVdBrbpm-18" value="Data_Abertura" style="ellipse;whiteSpace=wrap;html=1;align=center;" parent="WIyWlLk6GJQsqaUBKTNV-1" vertex="1">
          <mxGeometry x="330" y="-50" width="100" height="40" as="geometry" />
        </mxCell>
        <mxCell id="fYjH7rpswXSgFVdBrbpm-19" value="Data_TÃ©rmino" style="ellipse;whiteSpace=wrap;html=1;align=center;" parent="WIyWlLk6GJQsqaUBKTNV-1" vertex="1">
          <mxGeometry x="330" y="-20" width="100" height="40" as="geometry" />
        </mxCell>
        <mxCell id="fYjH7rpswXSgFVdBrbpm-20" value="ProcedÃªncia" style="ellipse;whiteSpace=wrap;html=1;align=center;" parent="WIyWlLk6GJQsqaUBKTNV-1" vertex="1">
          <mxGeometry x="330" y="10" width="100" height="40" as="geometry" />
        </mxCell>
        <mxCell id="fYjH7rpswXSgFVdBrbpm-21" value="" style="endArrow=none;html=1;rounded=0;exitX=1;exitY=0.5;exitDx=0;exitDy=0;entryX=0;entryY=0.5;entryDx=0;entryDy=0;" parent="WIyWlLk6GJQsqaUBKTNV-1" source="tUmBblhTTpLGE1RhBI9s-5" target="fYjH7rpswXSgFVdBrbpm-16" edge="1">
          <mxGeometry relative="1" as="geometry">
            <mxPoint x="180" y="-100" as="sourcePoint" />
            <mxPoint x="340" y="-100" as="targetPoint" />
          </mxGeometry>
        </mxCell>
        <mxCell id="fYjH7rpswXSgFVdBrbpm-22" value="Cidade" style="ellipse;whiteSpace=wrap;html=1;align=center;" parent="WIyWlLk6GJQsqaUBKTNV-1" vertex="1">
          <mxGeometry x="455" y="760" width="100" height="40" as="geometry" />
        </mxCell>
        <mxCell id="fYjH7rpswXSgFVdBrbpm-23" value="Estado ou FederaÃ§Ã£o" style="ellipse;whiteSpace=wrap;html=1;align=center;" parent="WIyWlLk6GJQsqaUBKTNV-1" vertex="1">
          <mxGeometry x="455" y="790" width="100" height="40" as="geometry" />
        </mxCell>
        <mxCell id="tUmBblhTTpLGE1RhBI9s-121" value="Quantidade de eleitos" style="ellipse;whiteSpace=wrap;html=1;align=center;" parent="WIyWlLk6GJQsqaUBKTNV-1" vertex="1">
          <mxGeometry x="455" y="830" width="100" height="40" as="geometry" />
        </mxCell>
        <mxCell id="AW_rNC2L6FQzhuxYuA6V-1" value="CÃ³digo" style="ellipse;whiteSpace=wrap;html=1;align=center;fontStyle=4;" parent="WIyWlLk6GJQsqaUBKTNV-1" vertex="1">
          <mxGeometry x="837" y="-50" width="100" height="40" as="geometry" />
        </mxCell>
        <mxCell id="tUmBblhTTpLGE1RhBI9s-134" value="Programa" style="ellipse;whiteSpace=wrap;html=1;align=center;" parent="WIyWlLk6GJQsqaUBKTNV-1" vertex="1">
          <mxGeometry x="837" y="-80" width="100" height="40" as="geometry" />
        </mxCell>
        <mxCell id="AW_rNC2L6FQzhuxYuA6V-3" value="" style="endArrow=none;html=1;rounded=0;entryX=0.5;entryY=0;entryDx=0;entryDy=0;exitX=0.5;exitY=1;exitDx=0;exitDy=0;" parent="WIyWlLk6GJQsqaUBKTNV-1" source="AW_rNC2L6FQzhuxYuA6V-1" target="tUmBblhTTpLGE1RhBI9s-10" edge="1">
          <mxGeometry relative="1" as="geometry">
            <mxPoint x="490" y="50" as="sourcePoint" />
            <mxPoint x="650" y="50" as="targetPoint" />
          </mxGeometry>
        </mxCell>
      </root>
    </mxGraphModel>
  </diagram>
</mxfile>
